<?xml version="1.0" encoding="UTF-8" standalone="no"?>
<svg
   xmlns="http://www.w3.org/2000/svg"
   viewBox="0 0 132.29166 132.29167"
   height="500"
   width="500">
  <g transform="translate(0,-164.70832)">
    <path
       d="m 67.628039,186.1358 c -2.861098,0.0162 -5.791729,0.21643 -8.76292,0.64088 -74.290387,10.61217 -54.8392314,55.61744 -54.8392314,55.61744 0,0 4.715137,23.13597 26.8221714,31.59603 43.193923,16.52971 45.587191,2.42086 45.693311,0.34939 0.10604,-2.07147 0.182636,-2.70942 -1.719891,-6.52359 -1.019513,-2.04392 -4.17313,-5.43432 -4.17313,-5.43432 0,0 -5.35576,-5.1658 -0.937013,-11.03587 2.958593,-3.93033 12.521481,-2.67495 17.080224,-2.28882 4.558744,0.38612 17.91673,6.98455 35.1193,2.98481 8.42069,-1.95788 8.69752,-11.86824 8.69752,-11.86824 0,0 5.99304,-21.99253 -27.31827,-44.27051 -6.792731,-4.54322 -20.212138,-9.85116 -35.662071,-9.7672 z m -17.772475,65.25479 a 9.1276746,7.5631846 8.8147963 0 1 5.018595,1.08838 9.1276746,7.5631846 8.8147963 0 1 3.802249,10.43795 9.1276746,7.5631846 8.8147963 0 1 -12.285841,2.58591 9.1276746,7.5631846 8.8147963 0 1 -3.802249,-10.43705 9.1276746,7.5631846 8.8147963 0 1 7.267246,-3.67519 z"
       style="fill:#cb5234"/>
    <ellipse
       ry="10.750608"
       rx="9.0595016"
       cy="239.94748"
       cx="18.565958"
       style="opacity:1;fill:#800080"/>
    <ellipse
       transform="matrix(-0.43179365,0.90197242,-0.95223454,-0.30536761,0,0)"
       ry="8.5795221"
       rx="8.7283716"
       cy="-115.63466"
       cx="196.05789"
       style="fill:#008000;fill-opacity:0.64640886"/>
    <ellipse
       transform="rotate(-8.6158772)"
       ry="5.9188738"
       rx="12.320921"
       cy="203.89984"
       cx="19.771662"
       style="fill:#ff5555"/>
    <ellipse
       ry="6.0396671"
       rx="13.04568"
       cy="206.00456"
       cx="90.679306"
       style="fill:#ffc550"/>
    <ellipse
       ry="8.817914"
       rx="6.1604605"
       cy="235.35733"
       cx="113.02605"
       style="fill:#008080;fill-opacity:0.62430941;stroke:none;stroke-width:0.49458006;stroke-miterlimit:4;stroke-dasharray:none;stroke-opacity:0.93370164"/>
  </g>
  <g transform="translate(0,-164.70832)">
    <path
       d="m 11.725153,221.81502 c 0,0 13.708278,18.26466 20.982819,27.06028 5.526804,6.68244 17.202799,19.51588 17.202799,19.51588 0,0 16.301821,-9.11069 24.126922,-14.19285 7.256022,-4.71257 21.121186,-15.087 21.121186,-15.087 0,0 -16.863352,6.28851 -42.024316,2.06669 -28.755459,-4.82491 -41.40941,-19.363 -41.40941,-19.363 z"
       style="fill:#d40000;fill-opacity:0.66298343" />
  </g>
  <g transform="translate(0,-164.70832)">
    <g
       transform="matrix(1.8078131,0,0,1.8078131,1.3258491,-68.305163)">
      <path
         style="fill:#aa0000;fill-opacity:0.74033149"
         d="m 51.904461,170.0516 c 0,0 -3.335959,1.24395 -8.994481,1.74461 l -16.034996,14.45182 c 0,0 9.017468,-5.03998 13.345954,-7.8512 4.0137,-2.60677 11.683526,-8.34523 11.683523,-8.34523 z"/>
      <path
         style="fill:#d40000;fill-opacity:0.30386741"
         d="m 28.658136,171.19474 -1.783353,15.05283 c 0,0 0.0015,-0.001 0.0016,-0.001 L 42.90998,171.79621 c 0.01963,-0.002 0.03779,-0.004 0.05736,-0.006 -3.812421,0.34176 -8.685498,0.34778 -14.309203,-0.59583 z"/>
      <path
         style="fill:#d40000;fill-opacity:0.66298343"
         d="m 5.763287,160.46402 c 0,0 7.5726,10.11839 11.595758,14.9882 3.055153,3.6981 9.515806,10.79529 9.515806,10.79529 L 16.248559,167.54483 C 9.889796,164.79457 5.763287,160.46402 5.763287,160.46402 Z"/>
    </g>
  </g>
  <g transform="translate(0,-164.70832)">
    <g
       transform="matrix(1.8078131,0,0,1.8078131,-33.505651,-146.3985)">
      <path
         style="fill:#d40000;fill-opacity:0.51041667"
         d="m 59.690373,200.02388 c -2.694596,0.0259 -5.982493,-0.30712 -9.9941,-1.15164 -3.20257,-0.7865 -6.985369,-1.84015 -9.460009,-3.07554 l 7.689058,18.59242 z"/>
      <path
         style="fill:#ba0000;fill-opacity:0.76243095"
         d="m 59.690373,200.02388 c 0.0131,-1.1e-4 -0.01307,0 0,0 L 47.925199,214.3889 c 0.07583,0.0148 17.407676,3.38277 27.408605,-2.7946 z"/>
      <path
         style="fill:#d40000;fill-opacity:0.58333333"
         d="m 71.886494,191.74021 c 0,0 0.608557,8.17728 -12.196121,8.28367 0.0131,-1.1e-4 -0.0131,1.3e-4 0,0 0.0131,-1.1e-4 -0.0131,0 0,0 v 0 l 15.643431,11.57042 -3.44734,-19.85409 z m -12.196121,8.28367 z"/>
      <path
         style="fill:#b40000;fill-opacity:0.85635358"
         d="m 71.906724,191.75572 c 0,0 0.002,0.0468 0.003,0.11989 l 3.42408,19.71869 0.0207,0.0155 c 2.01777,-1.25028 3.73739,-2.88802 4.95318,-5.02398 2.81043,-4.93751 -8.40054,-14.8301 -8.40052,-14.8301 z m -1.62936,4.5067 c -1.56861,1.92233 -4.63586,3.74173 -10.62622,3.7915 0.0131,-1.1e-4 0.0272,6.5e-4 0.0403,5.2e-4 0.0131,-1.1e-4 0.0272,5.2e-4 0.0403,5.2e-4 l -0.0124,0.0145 c 5.95264,-0.0666 9.00137,-1.88719 10.55801,-3.807 z"/>
      <path
         d="m 35.460706,184.2266 c 0,0 -13.978653,8.4558 -13.932006,10.6014 0.07635,3.51183 1.426477,6.42893 3.479444,8.84205 z"
         style="fill:#d40000;fill-opacity:0.90607731"/>
      <path
         style="fill:#b90018;fill-opacity:0.71354167"
         d="m 34.679387,185.68045 -9.671243,17.9896 15.22812,-7.87335 c -7.000478,-3.52645 -6.452367,-7.8931 -5.556877,-10.11625 z"/>
      <path
         d="m 40.25965,195.74993 -15.229178,7.90883 -0.01085,0.0202 c 7.168134,8.4271 22.905577,10.70994 22.905577,10.70994 z"
         style="fill:#d40000;fill-opacity:0.82291667"/>
    </g>
  </g>
  <g transform="translate(0,-164.70832)">
    <path
       d="m 30.264185,186.99271 c 0,0 -7.62752,7.19787 -0.333221,15.19893 4.014236,4.40318 13.164576,9.47151 28.480046,12.24394 41.088849,7.43795 38.516339,-13.86422 38.181049,-14.10929 -2.64627,-1.93433 -17.984143,-16.06113 -32.265884,-18.14774 -8.166001,-0.69586 -27.933976,-1.67436 -34.06199,4.81416 z"
       style="fill:#bd0000;fill-opacity:0.55801104" />
  </g>
  <g transform="translate(0,-164.70832)">
    <path
       d="m 43.274154,263.0379 6.806707,10.23121 6.848989,-8.54009 c 0,0 -2.258627,1.97804 -6.75379,1.73208 -5.123929,-0.28038 -6.901906,-3.4232 -6.901906,-3.4232 z"
       style="fill:#cb5234" />
  </g>
</svg>
